# xmcd
#
# Track frame offsets:
#	300
#	29618
#	53546
#	79141
#	111272
#	137617
#	163376
#	193961
#	217768
#	249069
#	281648
#	309157
#
# Disc length: 4455 seconds
#
# Revision: 3
# Processed by: cddbd v1.5.2PL0 Copyright (c) Steve Scherf et al.
# Submitted via: audiograbber 1.83.01
#
DISCID=a411630c
DTITLE=CD Pool - Dance January 2011 CD2
DYEAR=2011
DGENRE=Dance
TTITLE0=Taio Cruz Ft Kylie Minogue and Travie McCoy - Higher (7th Heaven Club Mix
TTITLE0=)
TTITLE1=Enrique Iglesias Ft Ludacris - Tonight (I'm Lovin' You)(Richard Vission
TTITLE1=Solmatic Dirty Remix)
TTITLE2=Kate Alexa - Infatuation (Wawa Club Mix)
TTITLE3=eSquire - Sax (Club Mix)
TTITLE4=Milk and Sugar Vs Vaya Con Dios - Hey (Nah Neh Nah)(Club Mix)
TTITLE5=Fenech-Soler - Demons (Wideboys Club Mix)
TTITLE6=DJ Sava Ft Raluka - I Like (The Trumpet)(Steve Smart and Westfunk Club Mi
TTITLE6=x)
TTITLE7=Annie Lennox - Universal Child (Bellatrax Remix)
TTITLE8=Steve More Ft Wray - Fool For You (7th Heaven Club Mix)
TTITLE9=Cher - You Haven't Seen The Last Of Me (Dave Aude Club Mix)
TTITLE10=Aggro Santos Ft Kimberley Walsh - Like U Like (Digital Dog Club Mix)
TTITLE11=Ida Corr - What Comes Around, Goes Around (Club Junkies Mix)
EXTD=
EXTT0=
EXTT1=
EXTT2=
EXTT3=
EXTT4=
EXTT5=
EXTT6=
EXTT7=
EXTT8=
EXTT9=
EXTT10=
EXTT11=
PLAYORDER=
